<svg width="128" height="128" viewBox="0 0 128 128" xmlns="http://www.w3.org/2000/svg">
  <defs>
    <linearGradient id="logoGradient" x1="0%" y1="0%" x2="100%" y2="100%">
      <stop offset="0%" style="stop-color:#3b82f6;stop-opacity:1" />
      <stop offset="100%" style="stop-color:#1e3a8a;stop-opacity:1" />
    </linearGradient>
    
    <filter id="logoGlow">
      <feGaussianBlur stdDeviation="2" result="coloredBlur"/>
      <feMerge> 
        <feMergeNode in="coloredBlur"/>
        <feMergeNode in="SourceGraphic"/>
      </feMerge>
    </filter>
  </defs>
  
  <!-- Background circle -->
  <circle cx="64" cy="64" r="60" fill="url(#logoGradient)" filter="url(#logoGlow)"/>
  
  <!-- Inner gear structure -->
  <circle cx="64" cy="64" r="45" fill="white" opacity="0.9"/>
  <circle cx="64" cy="64" r="35" fill="#1e3a8a"/>
  <circle cx="64" cy="64" r="25" fill="white"/>
  <circle cx="64" cy="64" r="15" fill="#3b82f6"/>
  <circle cx="64" cy="64" r="8" fill="white"/>
  
  <!-- Gear teeth - main cardinal directions -->
  <rect x="61" y="10" width="6" height="15" fill="white"/>
  <rect x="61" y="103" width="6" height="15" fill="white"/>
  <rect x="10" y="61" width="15" height="6" fill="white"/>
  <rect x="103" y="61" width="15" height="6" fill="white"/>
  
  <!-- Gear teeth - diagonal -->
  <g transform="translate(64, 64)">
    <rect x="-3" y="-50" width="6" height="12" fill="white" transform="rotate(45)"/>
    <rect x="-3" y="-50" width="6" height="12" fill="white" transform="rotate(135)"/>
    <rect x="-3" y="-50" width="6" height="12" fill="white" transform="rotate(225)"/>
    <rect x="-3" y="-50" width="6" height="12" fill="white" transform="rotate(315)"/>
  </g>
  
  <!-- Performance indicators -->
  <g transform="translate(64, 64)">
    <!-- Speed lines -->
    <path d="M-20,-20 L-15,-15" stroke="#06b6d4" stroke-width="2" opacity="0.7"/>
    <path d="M20,-20 L15,-15" stroke="#06b6d4" stroke-width="2" opacity="0.7"/>
    <path d="M-20,20 L-15,15" stroke="#06b6d4" stroke-width="2" opacity="0.7"/>
    <path d="M20,20 L15,15" stroke="#06b6d4" stroke-width="2" opacity="0.7"/>
  </g>
  
  <!-- Small accent elements -->
  <circle cx="32" cy="32" r="3" fill="#fbbf24" opacity="0.8"/>
  <circle cx="96" cy="96" r="3" fill="#10b981" opacity="0.8"/>
  <circle cx="96" cy="32" r="2" fill="#ef4444" opacity="0.8"/>
  <circle cx="32" cy="96" r="2" fill="#8b5cf6" opacity="0.8"/>
</svg>